<?xml version="1.0" standalone="no"?>
<!DOCTYPE svg PUBLIC "-//W3C//DTD SVG 20010904//EN"
 "http://www.w3.org/TR/2001/REC-SVG-20010904/DTD/svg10.dtd">
<svg version="1.0" xmlns="http://www.w3.org/2000/svg"
 width="512.000000pt" height="512.000000pt" viewBox="0 0 512.000000 512.000000"
 preserveAspectRatio="xMidYMid meet">

<g transform="translate(0.000000,512.000000) scale(0.100000,-0.100000)"
fill="#80ba14" stroke="none">
<path d="M1290 5105 c-293 -60 -527 -282 -600 -569 -16 -63 -31 -259 -80
-1035 -75 -1174 -72 -1103 -37 -1163 18 -31 44 -57 75 -75 l47 -28 258 -3 257
-3 0 -194 0 -193 -35 -6 c-45 -9 -101 -64 -114 -113 -6 -22 -11 -144 -11 -286
0 -198 3 -254 15 -276 23 -46 66 -54 108 -20 l27 20 2 262 3 262 233 3 232 2
0 -680 c0 -737 2 -711 -56 -779 -35 -42 -116 -81 -168 -81 -89 0 -175 52 -219
134 -21 39 -22 54 -25 341 -3 289 -4 301 -24 323 -26 27 -68 29 -99 3 l-24
-19 -3 -276 c-2 -165 1 -300 8 -334 57 -312 441 -429 656 -200 25 27 57 74 72
106 l27 57 3 721 2 720 -23 35 c-28 41 -82 79 -113 79 l-24 0 0 195 0 195 243
0 c138 0 258 5 280 11 85 23 147 110 147 207 0 74 -118 1952 -126 2012 -37
258 -232 505 -476 603 -137 54 -300 70 -438 42z m275 -150 c209 -44 391 -203
461 -403 32 -92 33 -107 101 -1195 l58 -939 -24 -19 c-21 -18 -42 -19 -262
-19 l-239 0 0 171 c0 191 -17 332 -56 467 -51 177 -85 217 -177 209 -72 -6
-101 -39 -137 -157 -55 -177 -80 -363 -80 -591 l0 -99 -235 0 c-235 0 -236 0
-260 24 -21 21 -23 31 -19 77 3 30 32 484 65 1009 41 668 64 973 75 1015 27
105 80 193 168 280 156 155 351 214 561 170z m-96 -2015 c36 -149 41 -216 41
-663 l0 -438 -72 3 -73 3 0 440 c0 304 4 462 13 510 19 111 55 246 63 238 4
-5 16 -46 28 -93z"/>
<path d="M4272 5053 c-32 -16 -72 -73 -127 -182 -63 -127 -60 -85 -65 -709
l-5 -574 -33 -29 c-45 -41 -102 -41 -143 0 l-29 29 0 528 c0 345 -4 550 -11
592 -8 43 -32 104 -73 185 -70 138 -99 167 -172 167 -66 0 -101 -38 -176 -188
l-63 -126 -5 -570 c-4 -433 -8 -576 -18 -593 -40 -71 -144 -71 -184 0 -10 17
-14 161 -18 597 l-5 575 -54 109 c-31 63 -72 127 -96 152 -36 39 -47 44 -84
44 -80 0 -113 -36 -203 -225 l-43 -90 -3 -371 c-2 -345 -1 -371 15 -386 10 -9
30 -20 45 -23 22 -6 33 -1 58 23 l30 30 0 337 0 336 30 72 c17 40 39 85 49
101 l19 29 44 -84 43 -84 5 -575 c6 -635 3 -607 71 -685 100 -113 278 -112
381 3 67 75 68 80 68 684 l0 539 24 57 c13 31 35 76 49 100 l24 43 22 -37 c12
-20 34 -64 49 -98 l27 -61 5 -570 c4 -408 8 -578 17 -596 21 -47 77 -102 128
-125 125 -59 270 -7 338 119 22 42 22 45 27 617 l5 575 44 89 c44 88 45 89 62
68 9 -12 32 -57 51 -99 l33 -78 0 -710 c0 -778 1 -761 -61 -890 -45 -95 -110
-174 -188 -229 -78 -56 -328 -169 -337 -152 -4 6 -10 44 -14 85 -7 83 -41 222
-77 321 -27 76 -67 110 -130 110 -86 0 -127 -55 -173 -235 -14 -55 -31 -142
-37 -195 -6 -52 -12 -96 -13 -98 -4 -5 -261 112 -304 139 -109 67 -221 214
-262 344 -8 26 -14 139 -18 313 -6 272 -6 274 -30 293 -31 25 -76 24 -102 -2
-20 -20 -20 -28 -17 -302 4 -275 4 -284 31 -362 53 -160 167 -312 299 -399 43
-29 307 -153 381 -179 16 -6 17 -32 17 -356 l0 -349 -35 -6 c-47 -9 -90 -48
-110 -99 -14 -37 -15 -119 -13 -742 l3 -700 32 -67 c129 -273 493 -305 666
-58 69 99 67 75 67 855 l0 702 -23 34 c-28 41 -82 79 -114 79 l-23 0 2 350 3
351 127 54 c70 29 158 70 196 90 189 99 325 270 384 481 22 77 22 93 26 788 2
489 0 724 -8 760 -13 59 -99 244 -137 294 -25 34 -76 62 -110 62 -10 0 -33 -8
-51 -17z m-611 -2169 c21 -93 23 -129 26 -571 l4 -473 -76 0 -77 0 5 463 c5
479 8 516 53 677 l18 64 12 -31 c7 -17 23 -75 35 -129z m187 -1882 l-3 -689
-30 -49 c-19 -30 -49 -60 -79 -79 -43 -26 -59 -30 -120 -30 -81 1 -116 15
-170 71 -67 69 -66 53 -66 796 l0 668 235 0 235 0 -2 -688z"/>
<path d="M3578 525 c-16 -9 -29 -27 -33 -46 -15 -69 69 -117 121 -68 63 59
-12 156 -88 114z"/>
<path d="M1388 510 c-24 -25 -29 -36 -24 -58 21 -89 146 -78 146 12 0 25 -7
40 -26 55 -36 29 -60 26 -96 -9z"/>
</g>
</svg>
