<?xml version="1.0" standalone="no"?>
<!DOCTYPE svg PUBLIC "-//W3C//DTD SVG 20010904//EN"
 "http://www.w3.org/TR/2001/REC-SVG-20010904/DTD/svg10.dtd">
<svg version="1.0" xmlns="http://www.w3.org/2000/svg"
 width="512.000000pt" height="512.000000pt" viewBox="0 0 512.000000 512.000000"
 preserveAspectRatio="xMidYMid meet">

<g transform="translate(0.000000,512.000000) scale(0.100000,-0.100000)"
fill="#80ba14" stroke="none">
<path d="M1819 4791 c-17 -18 -29 -40 -29 -56 0 -16 12 -38 29 -56 27 -27 35
-29 100 -29 58 0 74 4 95 23 15 12 29 36 32 54 5 27 1 37 -24 63 -28 28 -36
30 -102 30 -66 0 -74 -2 -101 -29z"/>
<path d="M2249 4751 c-34 -34 -38 -77 -11 -111 19 -23 177 -70 239 -70 44 0
83 37 83 79 0 52 -34 78 -140 106 -121 32 -135 31 -171 -4z"/>
<path d="M2762 4590 c-12 -5 -29 -25 -39 -44 -27 -57 -8 -85 102 -150 106 -64
147 -71 183 -33 30 32 29 87 0 114 -41 37 -166 113 -195 118 -15 2 -38 0 -51
-5z"/>
<path d="M1649 4451 c-17 -18 -29 -40 -29 -56 0 -16 12 -38 29 -56 27 -27 35
-29 101 -29 66 0 74 2 101 29 38 38 38 74 0 112 -27 27 -35 29 -101 29 -66 0
-74 -2 -101 -29z"/>
<path d="M2104 4420 c-26 -10 -54 -48 -54 -73 0 -10 7 -31 15 -46 12 -24 31
-34 124 -65 114 -38 146 -39 175 -7 9 10 19 31 22 48 10 50 -32 86 -145 122
-102 33 -105 34 -137 21z"/>
<path d="M190 4301 c-71 -23 -131 -74 -166 -141 -17 -32 -19 -61 -19 -320 0
-273 1 -287 22 -325 61 -114 193 -171 303 -130 25 9 52 19 62 22 11 3 154
-106 440 -334 748 -599 1242 -989 1612 -1272 165 -126 202 -158 212 -188 18
-51 68 -99 120 -113 43 -12 44 -13 44 -56 0 -25 -5 -44 -11 -44 -6 0 -47 9
-91 21 -71 18 -89 27 -140 74 -102 92 -276 165 -393 165 -40 0 -59 13 -311
208 -1110 858 -1724 1331 -1743 1342 -66 35 -144 -47 -109 -114 7 -13 71 -68
143 -122 72 -53 132 -98 134 -100 2 -2 -17 -27 -43 -55 -80 -89 -131 -217
-155 -389 -37 -262 -33 -554 9 -775 83 -427 323 -751 687 -926 203 -97 511
-169 726 -169 l69 0 61 -59 c34 -32 91 -77 126 -100 174 -112 433 -131 618
-46 l55 25 940 0 939 0 49 -25 c196 -99 434 -60 590 97 65 66 121 170 139 256
65 315 -180 612 -504 612 -139 0 -254 -49 -357 -152 l-68 -67 0 194 0 194 40
11 c49 13 99 54 116 97 10 24 14 87 14 237 l0 204 -38 49 c-113 142 -294 259
-487 314 -77 22 -98 23 -527 27 -440 3 -447 3 -497 -19 -28 -12 -67 -39 -86
-60 -60 -66 -65 -90 -65 -295 0 -101 -3 -184 -7 -184 -13 0 -474 357 -1038
804 -187 148 -375 297 -417 330 l-77 61 0 252 c-1 250 -1 252 -25 279 -30 36
-86 39 -119 6 -21 -21 -22 -33 -27 -208 l-5 -186 -213 171 -214 170 2 273 c1
296 -3 324 -55 392 -52 68 -187 113 -265 87z m121 -190 l29 -29 0 -242 0 -242
-29 -29 c-18 -17 -40 -29 -56 -29 -16 0 -38 12 -56 29 l-29 29 0 242 0 242 29
29 c18 17 40 29 56 29 16 0 38 -12 56 -29z m862 -1916 c399 -308 726 -562 726
-565 1 -3 -38 -25 -85 -49 -155 -79 -273 -220 -331 -396 -23 -69 -26 -97 -26
-205 0 -100 4 -138 21 -189 l21 -64 -75 7 c-278 23 -580 136 -767 285 -300
241 -446 667 -408 1190 20 279 58 415 142 506 23 25 45 44 49 43 3 -2 333
-255 733 -563z m2557 51 c123 -26 226 -72 310 -136 25 -19 17 -20 -597 -20
l-623 0 0 60 c0 51 4 65 25 85 l24 25 398 0 c300 0 414 -4 463 -14z m450 -456
l0 -130 -680 0 -680 0 0 130 0 130 680 0 680 0 0 -130z m-1909 -316 c88 -26
164 -72 229 -139 274 -286 140 -749 -246 -850 -112 -29 -237 -14 -354 42 -73
35 -187 150 -223 225 -98 205 -61 434 96 591 57 56 152 112 226 133 66 18 207
17 272 -2z m1739 -169 c0 -139 -3 -185 -12 -185 -7 0 -236 53 -510 117 l-498
117 0 68 0 68 510 0 510 0 0 -185z m-320 -290 l415 -97 0 -117 c1 -103 4 -123
28 -180 15 -36 27 -66 27 -68 0 -2 -335 -3 -745 -3 -410 0 -745 2 -745 5 0 2
18 32 40 66 100 156 131 348 84 531 -8 32 -17 64 -20 71 -4 10 66 -3 248 -48
139 -34 440 -106 668 -160z m1062 103 c70 -32 133 -96 167 -168 34 -74 36
-201 4 -272 -30 -66 -105 -143 -172 -175 -48 -24 -68 -28 -141 -28 -76 0 -93
4 -152 33 -114 56 -178 151 -186 277 -8 127 37 227 135 300 66 49 123 65 213
62 56 -2 89 -9 132 -29z"/>
<path d="M446 2237 c-31 -32 -41 -139 -27 -307 24 -290 93 -494 222 -656 142
-179 451 -341 532 -280 57 44 35 133 -38 148 -62 13 -176 73 -252 132 -111 87
-182 190 -232 341 -42 125 -60 252 -63 438 l-3 159 -28 24 c-36 31 -81 31
-111 1z"/>
<path d="M2075 1231 c-78 -19 -161 -96 -183 -169 -39 -128 25 -267 145 -317
55 -23 149 -19 209 9 125 58 179 219 115 344 -51 100 -178 159 -286 133z m117
-188 c37 -34 26 -120 -17 -137 -83 -32 -158 52 -109 122 30 43 87 50 126 15z"/>
<path d="M4574 886 c-42 -18 -61 -65 -44 -106 35 -84 160 -60 160 31 0 61 -60
99 -116 75z"/>
<path d="M3184 4270 c-30 -12 -54 -49 -54 -82 0 -21 21 -51 81 -118 74 -83 84
-90 118 -90 49 0 81 32 81 83 0 31 -10 49 -71 118 -62 70 -102 101 -127 98 -4
0 -17 -4 -28 -9z"/>
<path d="M2562 4194 c-29 -20 -44 -58 -36 -90 4 -16 42 -55 96 -100 73 -60 96
-74 124 -74 48 0 84 37 84 86 0 40 -26 70 -134 150 -63 47 -97 54 -134 28z"/>
<path d="M1479 4111 c-31 -31 -36 -59 -17 -94 20 -38 40 -46 118 -46 78 0 98
8 118 46 19 35 14 63 -17 94 -27 27 -35 29 -101 29 -66 0 -74 -2 -101 -29z"/>
<path d="M1906 4047 c-35 -35 -35 -89 -1 -122 13 -14 30 -25 37 -25 6 0 47
-16 89 -36 84 -39 113 -40 149 -4 22 22 26 70 9 102 -13 24 -167 98 -220 105
-31 5 -42 1 -63 -20z"/>
<path d="M3494 3850 c-29 -11 -54 -49 -54 -80 1 -37 100 -212 131 -229 50 -28
119 12 119 70 0 33 -81 199 -109 223 -22 19 -62 26 -87 16z"/>
<path d="M2912 3807 c-35 -37 -28 -81 23 -162 72 -114 82 -125 121 -125 20 0
44 4 54 10 26 14 42 65 29 98 -17 45 -99 171 -122 187 -32 23 -80 19 -105 -8z"/>
<path d="M2335 3765 c-42 -41 -34 -82 28 -156 92 -110 102 -119 140 -119 27 0
41 7 62 32 35 41 29 71 -29 147 -93 120 -150 148 -201 96z"/>
<path d="M3174 3360 c-27 -11 -54 -48 -54 -73 0 -11 14 -64 31 -119 41 -127
78 -160 142 -126 32 17 46 39 47 73 0 41 -57 209 -78 228 -23 21 -62 28 -88
17z"/>
<path d="M3675 3345 c-32 -31 -31 -62 3 -185 26 -91 29 -96 66 -114 36 -17 40
-18 72 -3 54 26 57 74 14 215 -12 40 -32 82 -43 93 -30 27 -82 25 -112 -6z"/>
<path d="M2612 3327 c-12 -13 -22 -36 -22 -51 0 -31 56 -203 72 -223 6 -7 28
-18 49 -24 47 -14 81 3 97 50 9 25 5 46 -23 126 -18 53 -43 107 -56 121 -30
32 -87 33 -117 1z"/>
<path d="M2749 2831 c-31 -32 -35 -59 -20 -140 10 -51 34 -78 78 -87 27 -5 37
-1 64 25 31 32 32 33 26 104 -5 64 -10 75 -37 100 -39 35 -74 35 -111 -2z"/>
<path d="M3779 2831 c-26 -27 -29 -35 -29 -99 0 -79 20 -116 69 -127 64 -14
111 39 111 127 0 112 -83 166 -151 99z"/>
<path d="M3265 2825 c-21 -20 -25 -33 -25 -87 0 -74 15 -108 54 -126 34 -17
68 -9 97 21 18 19 20 32 17 96 -3 65 -6 76 -31 97 -37 31 -81 31 -112 -1z"/>
</g>
</svg>
