<?xml version="1.0" standalone="no"?>
<!DOCTYPE svg PUBLIC "-//W3C//DTD SVG 20010904//EN"
 "http://www.w3.org/TR/2001/REC-SVG-20010904/DTD/svg10.dtd">
<svg version="1.0" xmlns="http://www.w3.org/2000/svg"
 width="512.000000pt" height="512.000000pt" viewBox="0 0 512.000000 512.000000"
 preserveAspectRatio="xMidYMid meet">

<g transform="translate(0.000000,512.000000) scale(0.100000,-0.100000)"
fill="#80ba14" stroke="none">
<path d="M596 5030 c-144 -14 -367 -72 -407 -106 -8 -8 -28 -53 -43 -100 -33
-101 -28 -134 22 -134 37 0 54 21 76 93 21 70 31 75 201 115 93 21 134 26 265
26 175 0 276 -16 418 -66 184 -65 288 -131 557 -355 209 -174 237 -209 238
-301 1 -101 6 -96 -446 -549 -297 -298 -434 -429 -464 -443 -58 -27 -143 -27
-200 1 -34 16 -82 67 -222 236 -98 118 -199 249 -225 292 -94 155 -155 337
-176 516 -7 65 -14 93 -27 103 -23 17 -48 15 -69 -5 -14 -14 -16 -30 -10 -99
14 -180 93 -414 197 -580 68 -107 382 -489 438 -531 58 -45 138 -67 220 -61
108 8 147 33 327 210 88 87 163 158 166 158 8 0 863 -881 863 -890 0 -3 -308
-308 -685 -677 l-685 -671 -92 88 c-71 68 -103 92 -144 105 -62 21 -139 16
-195 -13 -22 -11 -105 -87 -186 -169 -135 -138 -148 -153 -163 -207 -20 -68
-15 -127 14 -184 11 -20 163 -179 338 -353 355 -353 360 -357 473 -346 85 7
124 35 277 189 149 151 173 190 173 283 0 84 -24 129 -121 230 l-82 85 159
163 c88 89 388 397 669 685 l509 523 93 -93 c51 -51 364 -374 697 -718 l604
-625 -83 -87 c-71 -73 -86 -95 -100 -143 -19 -65 -14 -129 15 -185 23 -44 293
-311 340 -336 25 -13 57 -19 110 -19 64 0 82 4 120 27 25 15 181 163 347 330
331 332 343 348 343 453 0 94 -24 132 -178 288 -164 166 -189 182 -292 182
-95 0 -120 -13 -232 -123 l-87 -85 -453 445 c-249 245 -571 562 -716 704
l-264 259 502 515 c648 665 634 652 656 643 11 -3 57 -43 104 -87 93 -89 145
-119 238 -136 117 -21 230 16 305 100 47 52 388 576 406 623 22 57 -31 127
-97 127 -42 0 -61 -18 -315 -300 -178 -198 -206 -225 -235 -228 -36 -4 -65 13
-60 34 2 7 104 126 228 265 273 307 270 303 270 352 0 56 -51 107 -109 107
-48 0 -31 14 -354 -287 -131 -123 -244 -223 -250 -223 -17 0 -37 20 -37 37 0
8 108 135 240 284 133 148 245 282 251 297 27 70 -28 142 -107 142 -40 0 -51
-6 -97 -48 -64 -59 -441 -406 -479 -441 -27 -24 -28 -24 -48 -6 -20 18 -25 41
-14 68 3 8 120 121 259 252 275 256 284 268 251 332 -17 34 -64 58 -98 51 -38
-7 -623 -404 -657 -445 -69 -84 -92 -171 -72 -278 17 -90 53 -153 142 -249 67
-71 80 -90 74 -109 -6 -19 -719 -726 -1035 -1025 l-120 -114 -445 438 -445
437 158 161 c138 140 162 169 181 219 40 108 23 236 -43 324 -35 47 -405 353
-508 420 -247 160 -569 240 -862 213z m3509 -199 c-17 -15 -104 -97 -195 -181
-186 -171 -214 -210 -207 -283 7 -77 75 -147 142 -147 46 0 81 27 334 257 124
114 237 216 251 227 22 19 23 19 10 2 -8 -11 -111 -128 -229 -260 -118 -133
-222 -254 -232 -271 -41 -66 -13 -152 62 -194 43 -25 68 -26 112 -7 18 7 149
121 292 254 143 132 262 239 263 237 2 -2 -103 -123 -233 -269 -130 -146 -243
-282 -251 -302 -26 -63 4 -137 70 -168 43 -20 118 -21 156 -1 16 8 109 104
206 213 98 108 186 206 197 217 l20 20 -18 -30 c-56 -90 -225 -350 -268 -413
-68 -98 -116 -127 -212 -127 -95 1 -141 24 -245 122 -47 44 -95 85 -107 91
-27 15 -71 15 -111 1 -19 -7 -156 -139 -383 -372 -194 -199 -452 -463 -572
-585 l-220 -224 -48 48 c-27 27 -48 52 -47 55 2 4 262 260 578 569 316 308
583 575 593 593 19 35 22 83 7 122 -5 14 -50 68 -98 119 -99 103 -122 150
-122 243 0 61 23 113 68 157 27 25 449 314 462 315 2 1 -9 -12 -25 -28z
m-1160 -2541 c512 -502 997 -980 1080 -1061 l150 -149 -75 -74 -75 -75 -1259
1301 -1258 1300 43 44 43 44 211 -208 c115 -115 629 -620 1140 -1122z m-1040
-512 c-318 -326 -620 -636 -671 -688 l-94 -95 -70 70 -71 71 688 672 687 673
55 -55 54 -54 -578 -594z m-1209 -497 c21 -16 166 -156 320 -312 308 -311 318
-324 294 -402 -9 -30 -41 -70 -123 -155 -144 -148 -177 -172 -234 -172 -24 0
-56 6 -71 14 -33 18 -615 602 -631 633 -15 30 -14 89 3 121 16 30 260 273 291
290 11 6 41 12 66 12 35 0 55 -7 85 -29z m3960 -50 c78 -57 261 -254 274 -295
26 -80 16 -93 -293 -405 -155 -156 -300 -296 -321 -312 -44 -33 -108 -39 -154
-15 -15 8 -86 74 -158 148 -211 214 -219 186 164 572 163 164 311 307 327 317
47 29 113 25 161 -10z"/>
<path d="M468 1082 c-68 -68 -118 -126 -118 -137 0 -12 111 -131 287 -307 222
-222 293 -288 312 -288 18 0 55 30 138 113 92 92 113 118 113 142 1 26 -37 67
-286 313 -191 189 -293 282 -307 282 -14 0 -63 -42 -139 -118z m555 -526 c-25
-28 -52 -58 -60 -66 -11 -13 -45 17 -248 220 l-235 235 62 62 63 63 232 -232
232 -232 -46 -50z"/>
<path d="M4257 862 c-171 -171 -287 -295 -287 -306 0 -11 52 -71 117 -138 88
-89 123 -118 142 -118 20 0 87 61 308 283 242 241 283 287 283 312 0 24 -20
49 -113 142 -83 83 -120 113 -138 113 -19 0 -90 -66 -312 -288z m374 95 l57
-63 -228 -234 -228 -235 -66 65 -66 65 232 232 c128 128 235 233 238 233 3 0
30 -28 61 -63z"/>
<path d="M102 4574 c-12 -8 -22 -25 -22 -38 0 -26 28 -56 53 -56 21 0 57 35
57 55 0 18 -35 55 -53 55 -7 0 -23 -7 -35 -16z"/>
<path d="M1386 4557 c-25 -18 -24 -66 2 -86 116 -91 322 -267 322 -275 0 -14
-782 -796 -795 -795 -6 0 -73 76 -150 170 -77 93 -147 172 -157 175 -44 13
-85 -49 -56 -84 8 -9 76 -92 152 -184 147 -178 172 -197 239 -183 25 6 119 93
440 413 225 224 415 419 423 434 17 33 18 68 2 104 -15 31 -365 324 -388 324
-9 0 -24 -6 -34 -13z"/>
</g>
</svg>
