<?xml version="1.0" standalone="no"?>
<!DOCTYPE svg PUBLIC "-//W3C//DTD SVG 20010904//EN"
 "http://www.w3.org/TR/2001/REC-SVG-20010904/DTD/svg10.dtd">
<svg version="1.0" xmlns="http://www.w3.org/2000/svg"
 width="512.000000pt" height="512.000000pt" viewBox="0 0 512.000000 512.000000"
 preserveAspectRatio="xMidYMid meet">

<g transform="translate(0.000000,512.000000) scale(0.100000,-0.100000)"
fill="#80ba14" stroke="none">
<path d="M2443 4925 c-84 -23 -154 -64 -214 -125 -78 -80 -115 -160 -134 -291
-5 -33 -9 -38 -43 -44 -198 -37 -365 -265 -350 -477 4 -56 3 -59 -16 -54 -12
3 -26 6 -32 6 -6 0 -14 22 -17 49 -14 119 -97 230 -215 288 -71 36 -82 38
-166 38 -118 -1 -184 -26 -266 -101 -65 -61 -104 -129 -122 -215 -11 -55 -13
-57 -52 -69 -65 -19 -119 -55 -174 -115 -65 -71 -94 -145 -97 -248 l-3 -78
-46 -30 c-115 -77 -182 -238 -156 -379 l11 -62 -53 -56 c-141 -149 -154 -347
-33 -512 l44 -59 -25 -55 c-75 -164 -14 -374 137 -475 34 -23 80 -46 102 -52
23 -6 47 -13 53 -14 6 -2 15 -28 18 -57 8 -60 42 -140 82 -193 62 -82 192
-145 299 -145 l55 0 -2 -537 -3 -538 -402 -3 -402 -2 -20 -26 c-27 -35 -26
-59 4 -89 l24 -25 2331 0 2331 0 24 25 c30 30 31 54 4 89 l-20 26 -402 2 -402
3 -3 536 -2 536 74 5 c183 12 339 156 362 335 3 30 12 56 18 58 6 1 30 8 53
14 64 18 156 84 197 144 85 124 98 278 32 404 l-16 33 44 60 c59 80 80 145 80
245 0 70 -5 90 -33 150 -19 42 -52 91 -82 121 l-50 51 11 62 c26 142 -39 300
-157 381 l-48 33 -1 76 c-1 101 -30 174 -96 246 -55 60 -109 96 -174 115 -39
12 -41 14 -52 69 -26 124 -105 227 -218 282 -121 60 -275 47 -390 -32 -83 -57
-150 -165 -161 -260 -3 -27 -11 -49 -17 -49 -6 0 -20 -3 -32 -6 -19 -5 -20 -2
-16 54 9 126 -48 271 -141 360 -58 54 -151 106 -210 117 -33 6 -37 11 -42 44
-19 131 -56 211 -134 291 -116 119 -290 167 -448 125z m264 -165 c62 -31 114
-82 146 -145 21 -42 37 -134 30 -181 -8 -60 18 -85 94 -94 121 -15 224 -85
269 -185 33 -71 39 -133 24 -217 -10 -49 -10 -75 -3 -87 5 -9 41 -33 79 -54
89 -49 118 -78 155 -153 43 -87 44 -174 5 -273 -28 -67 -28 -71 -12 -95 9 -14
33 -34 54 -45 51 -26 109 -86 140 -146 23 -43 27 -62 27 -140 0 -129 -26 -178
-159 -291 -47 -40 -46 -64 4 -129 68 -89 90 -172 71 -267 -33 -155 -173 -268
-332 -268 -76 0 -84 -12 -84 -132 0 -127 -22 -183 -99 -256 -68 -64 -129 -87
-231 -87 -112 1 -177 36 -267 143 -36 44 -80 44 -116 0 -94 -113 -151 -143
-277 -143 -79 0 -96 4 -142 28 -69 36 -120 88 -152 156 -23 49 -26 69 -26 158
0 68 -4 106 -13 115 -6 6 -46 15 -88 19 -193 19 -319 149 -318 329 0 87 16
130 74 205 50 65 51 89 4 129 -133 113 -159 162 -159 291 0 79 4 97 27 142 32
60 87 117 140 144 21 11 45 31 54 45 16 24 16 28 -12 96 -40 100 -39 184 5
273 36 72 79 114 167 160 77 40 80 48 64 133 -15 84 -9 146 24 217 46 101 147
170 269 185 76 9 102 34 94 94 -7 48 9 139 30 181 84 164 273 226 440 145z
m-1342 -608 c87 -44 134 -127 135 -234 0 -59 3 -69 25 -86 14 -11 25 -22 25
-25 0 -3 -13 -25 -29 -49 -66 -98 -93 -259 -62 -371 l13 -46 -58 -54 c-71 -66
-118 -141 -139 -222 -41 -158 2 -325 114 -444 l32 -35 -30 -65 c-44 -96 -57
-182 -42 -272 31 -191 172 -343 354 -384 l52 -11 7 -55 c10 -78 -7 -125 -67
-184 -55 -56 -102 -75 -181 -75 -68 1 -126 30 -189 96 -48 49 -58 55 -82 50
-16 -4 -46 -28 -67 -53 -124 -143 -333 -118 -424 51 -12 22 -17 57 -17 120 -1
80 -4 91 -24 107 -15 12 -39 19 -65 19 -174 0 -297 170 -241 331 9 24 29 61
45 81 50 62 45 95 -20 142 -128 92 -142 276 -28 382 18 17 47 39 65 49 49 29
57 56 31 118 -55 137 -7 272 121 337 84 42 87 47 71 129 -15 81 -5 139 36 201
41 61 128 110 198 110 17 0 42 7 54 16 18 13 22 25 22 72 0 136 55 221 175
269 42 18 143 10 190 -15z m2588 12 c54 -18 115 -74 141 -128 10 -21 21 -75
25 -118 8 -90 21 -108 77 -108 73 0 156 -46 199 -111 39 -60 50 -121 36 -194
-16 -78 -8 -96 58 -129 70 -36 106 -69 131 -123 30 -63 31 -149 2 -220 -26
-62 -18 -89 31 -118 18 -10 47 -32 65 -49 114 -106 99 -290 -30 -384 -64 -45
-68 -79 -17 -141 31 -40 59 -115 59 -161 0 -132 -120 -250 -256 -250 -26 0
-50 -7 -65 -19 -20 -16 -23 -27 -24 -107 0 -63 -5 -98 -17 -120 -91 -169 -300
-194 -424 -51 -21 25 -51 49 -67 53 -24 5 -34 -1 -82 -50 -63 -66 -121 -95
-189 -96 -79 0 -126 19 -181 75 -60 59 -77 106 -67 184 l7 55 50 11 c194 44
335 203 360 407 9 70 -9 168 -46 249 l-30 65 32 35 c112 119 155 286 114 444
-21 81 -68 156 -139 222 l-58 54 13 46 c31 112 4 273 -62 372 l-30 44 25 26
c22 23 26 36 26 92 1 184 162 302 333 243z m-1930 -2748 c71 -33 127 -45 210
-46 l67 0 0 -525 0 -525 -410 0 -410 0 0 540 0 540 48 0 c101 0 206 47 281
124 l34 35 63 -58 c34 -32 87 -70 117 -85z m1411 19 c38 -18 77 -28 130 -32
l76 -6 0 -538 0 -539 -410 0 -410 0 0 525 0 525 68 0 c126 0 250 52 337 140
l48 49 54 -49 c29 -27 77 -60 107 -75z m-853 59 c7 -9 32 -29 56 -45 l43 -30
0 -549 0 -550 -120 0 -120 0 0 550 0 549 43 30 c24 16 49 36 56 45 8 9 17 16
21 16 4 0 13 -7 21 -16z m-1296 -14 c10 -11 26 -22 36 -25 18 -6 19 -28 19
-571 l0 -564 -85 0 -85 0 0 564 0 563 38 26 c45 32 54 32 77 7z m2625 -6 l40
-27 0 -563 0 -564 -85 0 -85 0 0 564 c0 543 1 565 19 571 10 3 26 14 36 25 23
26 28 25 75 -6z"/>
<path d="M2855 3985 c-32 -31 -31 -56 3 -96 23 -28 27 -42 27 -92 0 -53 3 -62
27 -80 89 -67 155 97 85 215 -47 80 -97 99 -142 53z"/>
<path d="M3042 3578 c-22 -11 -39 -50 -33 -78 2 -8 29 -42 60 -76 69 -74 86
-123 71 -205 -10 -53 -46 -125 -74 -149 -22 -18 -20 -66 4 -90 49 -49 114 -9
170 105 52 107 57 227 12 327 -32 72 -142 180 -179 177 -4 0 -18 -5 -31 -11z"/>
<path d="M2968 2243 c-9 -10 -18 -39 -21 -66 -3 -28 -15 -63 -31 -85 -34 -49
-34 -85 1 -112 35 -27 69 -20 107 23 69 78 86 213 32 249 -20 14 -73 8 -88 -9z"/>
</g>
</svg>
